<svg preserveAspectRatio="xMidYMid meet" xmlns="http://www.w3.org/2000/svg">
    <symbol id="clock" viewBox="0 0 24 24">
        <path d="M0 0h24v24H0V0z" fill="none"/><path d="M11.99 2C6.47 2 2 6.48 2 12s4.47 10 9.99 10C17.52 22 22 17.52 22 12S17.52 2 11.99 2zM12 20c-4.42 0-8-3.58-8-8s3.58-8 8-8 8 3.58 8 8-3.58 8-8 8zm.5-13H11v6l5.25 3.15.75-1.23-4.5-2.67z"/>
    </symbol>

    <symbol id="reply" viewBox="0 0 24 24">
        <path d="M0 0h24v24H0z" fill="none"/><path d="M10 9V5l-7 7 7 7v-4.1c5 0 8.5 1.6 11 5.1-1-5-4-10-11-11z"/>
    </symbol>

    <symbol id="boost" viewBox="0 0 24 24">
        <path d="M6,5.75L10.25,10H7V16H13.5L15.5,18H7A2,2 0 0,1 5,16V10H1.75L6,5.75M18,18.25L13.75,14H17V8H10.5L8.5,6H17A2,2 0 0,1 19,8V14H22.25L18,18.25Z" />
    </symbol>

    <symbol id="star" viewBox="0 0 24 24">
        <path d="M0 0h24v24H0z" fill="none"/><path d="M12 17.27L18.18 21l-1.64-7.03L22 9.24l-7.19-.61L12 2 9.19 8.63 2 9.24l5.46 4.73L5.82 21z"/>
    </symbol>

    <symbol id="start-outlined" viewBox="0 0 24 24">
        <path d="M0 0h24v24H0V0z" fill="none"/><path d="M12 7.13l.97 2.29.47 1.11 1.2.1 2.47.21-1.88 1.63-.91.79.27 1.18.56 2.41-2.12-1.28-1.03-.64-1.03.62-2.12 1.28.56-2.41.27-1.18-.91-.79-1.88-1.63 2.47-.21 1.2-.1.47-1.11.97-2.27M12 2L9.19 8.63 2 9.24l5.46 4.73L5.82 21 12 17.27 18.18 21l-1.64-7.03L22 9.24l-7.19-.61L12 2z"/>
    </symbol>

    <symbol id="share" viewBox="0 0 24 24">
        <path d="M0 0h24v24H0V0z" fill="none"/><path d="M18 16.08c-.76 0-1.44.3-1.96.77L8.91 12.7c.05-.23.09-.46.09-.7s-.04-.47-.09-.7l7.05-4.11c.54.5 1.25.81 2.04.81 1.66 0 3-1.34 3-3s-1.34-3-3-3-3 1.34-3 3c0 .24.04.47.09.7L8.04 9.81C7.5 9.31 6.79 9 6 9c-1.66 0-3 1.34-3 3s1.34 3 3 3c.79 0 1.5-.31 2.04-.81l7.12 4.16c-.05.21-.08.43-.08.65 0 1.61 1.31 2.92 2.92 2.92s2.92-1.31 2.92-2.92c0-1.61-1.31-2.92-2.92-2.92zM18 4c.55 0 1 .45 1 1s-.45 1-1 1-1-.45-1-1 .45-1 1-1zM6 13c-.55 0-1-.45-1-1s.45-1 1-1 1 .45 1 1-.45 1-1 1zm12 7.02c-.55 0-1-.45-1-1s.45-1 1-1 1 .45 1 1-.45 1-1 1z"/>
    </symbol>

    <symbol id="mate" viewBox="0 0 24 24">
        <g transform="">
            <path d="M 6.925 8.408 L 16.945 8.408 C 17.49 8.408 17.935 8.853 17.935 9.398 C 17.935 9.943 17.49 10.388 16.945 10.388 L 6.925 10.388 C 6.38 10.388 5.935 9.943 5.935 9.398 C 5.935 8.853 6.38 8.408 6.925 8.408 Z"></path>
            <path d="M 14.194 8.051 L 19.649 0.618 L 18.043 0.618 L 13.163 7.294 C 12.956 7.578 13.047 7.943 13.3 8.187 L 13.301 8.188 C 13.584 8.396 13.986 8.334 14.194 8.051 Z" style="transform-box: fill-box; transform-origin: 50% 50%;" transform="matrix(-1, 0, 0, -1, 0.000001, -0.000003)"></path>
            <path d="M 7.932 22.416 L 16.166 22.416 C 16.432 22.416 16.649 22.633 16.649 22.899 L 16.649 23.381 L 7.449 23.381 L 7.449 22.899 C 7.449 22.633 7.666 22.416 7.932 22.416 Z"></path>
            <path d="M 6.247 10.764 L 17.619 10.764 C 20.443 14.218 19.71 19.41 16.193 22.226 L 7.824 22.226 C 4.15 19.79 3.025 14.494 6.247 10.764 Z"></path>
        </g>
    </symbol>

    <symbol id="heart" viewBox="0 0 24 24">
        <path d="M 12 22 L 10.42 20.583 C 8.586 18.929 7.068 17.505 5.869 16.306 C 4.67 15.107 3.717 14.03 3.008 13.077 C 2.3 12.123 1.805 11.246 1.524 10.447 C 1.243 9.647 1.101 8.831 1.101 7.995 C 1.101 6.286 1.674 4.862 2.817 3.716 C 3.963 2.573 5.387 2 7.096 2 C 8.041 2 8.939 2.2 9.793 2.599 C 10.647 2.999 11.382 3.562 12 4.289 C 12.618 3.562 13.354 2.999 14.208 2.599 C 15.062 2.2 15.96 2 16.905 2 C 18.613 2 20.038 2.573 21.183 3.716 C 22.327 4.862 22.899 6.286 22.899 7.995 C 22.899 8.831 22.758 9.647 22.476 10.447 C 22.195 11.246 21.7 12.123 20.992 13.077 C 20.284 14.03 19.33 15.107 18.131 16.306 C 16.933 17.505 15.415 18.929 13.581 20.583 L 12 22 Z"></path>
    </symbol>

    <symbol id="keyboard" viewBox="0 0 24 24">
        <path d="M 3.2 19.7 C 2.594 19.7 2.077 19.484 1.646 19.055 C 1.216 18.623 1 18.104 1 17.5 L 1 6.5 C 1 5.894 1.216 5.377 1.646 4.946 C 2.077 4.516 2.594 4.3 3.2 4.3 L 20.8 4.3 C 21.404 4.3 21.923 4.516 22.355 4.946 C 22.784 5.377 23 5.894 23 6.5 L 23 17.5 C 23 18.104 22.784 18.623 22.355 19.055 C 21.923 19.484 21.404 19.7 20.8 19.7 L 3.2 19.7 Z M 7.6 16.4 L 16.4 16.4 L 16.4 14.2 L 7.6 14.2 L 7.6 16.4 Z M 4.3 13.1 L 6.5 13.1 L 6.5 10.9 L 4.3 10.9 L 4.3 13.1 Z M 7.6 13.1 L 9.8 13.1 L 9.8 10.9 L 7.6 10.9 L 7.6 13.1 Z M 10.9 13.1 L 13.1 13.1 L 13.1 10.9 L 10.9 10.9 L 10.9 13.1 Z M 14.2 13.1 L 16.4 13.1 L 16.4 10.9 L 14.2 10.9 L 14.2 13.1 Z M 17.5 13.1 L 19.7 13.1 L 19.7 10.9 L 17.5 10.9 L 17.5 13.1 Z M 4.3 9.8 L 6.5 9.8 L 6.5 7.6 L 4.3 7.6 L 4.3 9.8 Z M 7.6 9.8 L 9.8 9.8 L 9.8 7.6 L 7.6 7.6 L 7.6 9.8 Z M 10.9 9.8 L 13.1 9.8 L 13.1 7.6 L 10.9 7.6 L 10.9 9.8 Z M 14.2 9.8 L 16.4 9.8 L 16.4 7.6 L 14.2 7.6 L 14.2 9.8 Z M 17.5 9.8 L 19.7 9.8 L 19.7 7.6 L 17.5 7.6 L 17.5 9.8 Z"></path>
    </symbol>

    <symbol id="headphones" viewBox="0 0 24 24">
        <path d="M 8.333 23 L 3.444 23 C 2.772 23 2.197 22.761 1.718 22.282 C 1.239 21.803 1 21.228 1 20.556 L 1 12 C 1 10.472 1.29 9.041 1.871 7.707 C 2.451 6.373 3.236 5.212 4.224 4.224 C 5.212 3.236 6.373 2.451 7.707 1.871 C 9.041 1.29 10.472 1 12 1 C 13.528 1 14.959 1.29 16.293 1.871 C 17.627 2.451 18.788 3.236 19.776 4.224 C 20.764 5.212 21.549 6.373 22.129 7.707 C 22.71 9.041 23 10.472 23 12 L 23 20.556 C 23 21.228 22.761 21.803 22.282 22.282 C 21.803 22.761 21.228 23 20.556 23 L 15.667 23 L 15.667 13.222 L 20.556 13.222 L 20.556 12 C 20.556 9.617 19.725 7.595 18.065 5.935 C 16.405 4.275 14.383 3.444 12 3.444 C 9.617 3.444 7.595 4.275 5.935 5.935 C 4.275 7.595 3.444 9.617 3.444 12 L 3.444 13.222 L 8.333 13.222 L 8.333 23 Z"></path>
    </symbol>

    <symbol id="coffee" viewBox="0 0 24 24">
        <path d="M 9.556 19.333 C 7.172 19.333 5.15 18.503 3.49 16.843 C 1.83 15.183 1 13.161 1 10.778 L 1 3.444 C 1 2.772 1.239 2.197 1.718 1.718 C 2.197 1.239 2.772 1 3.444 1 L 18.722 1 C 19.904 1 20.912 1.418 21.747 2.253 C 22.582 3.088 23 4.096 23 5.278 C 23 6.459 22.582 7.468 21.747 8.303 C 20.912 9.138 19.904 9.556 18.722 9.556 L 18.111 9.556 L 18.111 10.778 C 18.111 13.161 17.281 15.183 15.621 16.843 C 13.961 18.503 11.939 19.333 9.556 19.333 Z M 3.444 7.111 L 15.667 7.111 L 15.667 3.444 L 3.444 3.444 L 3.444 7.111 Z M 18.111 7.111 L 18.722 7.111 C 19.231 7.111 19.664 6.933 20.021 6.576 C 20.377 6.22 20.556 5.787 20.556 5.278 C 20.556 4.769 20.377 4.336 20.021 3.979 C 19.664 3.623 19.231 3.444 18.722 3.444 L 18.111 3.444 L 18.111 7.111 Z M 1 23 L 1 20.556 L 20.556 20.556 L 20.556 23 L 1 23 Z"></path>
    </symbol>

    <symbol id="pets" viewBox="0 0 24 24">
        <path d="M 3.75 11.45 C 2.98 11.45 2.329 11.184 1.798 10.653 C 1.266 10.121 1 9.47 1 8.7 C 1 7.93 1.266 7.279 1.798 6.748 C 2.329 6.216 2.98 5.95 3.75 5.95 C 4.52 5.95 5.171 6.216 5.703 6.748 C 6.234 7.279 6.5 7.93 6.5 8.7 C 6.5 9.47 6.234 10.121 5.703 10.653 C 5.171 11.184 4.52 11.45 3.75 11.45 Z M 8.7 7.05 C 7.93 7.05 7.279 6.784 6.748 6.253 C 6.216 5.721 5.95 5.07 5.95 4.3 C 5.95 3.53 6.216 2.879 6.748 2.348 C 7.279 1.816 7.93 1.55 8.7 1.55 C 9.47 1.55 10.121 1.816 10.653 2.348 C 11.184 2.879 11.45 3.53 11.45 4.3 C 11.45 5.07 11.184 5.721 10.653 6.253 C 10.121 6.784 9.47 7.05 8.7 7.05 Z M 15.3 7.05 C 14.53 7.05 13.879 6.784 13.348 6.253 C 12.816 5.721 12.55 5.07 12.55 4.3 C 12.55 3.53 12.816 2.879 13.348 2.348 C 13.879 1.816 14.53 1.55 15.3 1.55 C 16.07 1.55 16.721 1.816 17.253 2.348 C 17.784 2.879 18.05 3.53 18.05 4.3 C 18.05 5.07 17.784 5.721 17.253 6.253 C 16.721 6.784 16.07 7.05 15.3 7.05 Z M 20.25 11.45 C 19.48 11.45 18.829 11.184 18.298 10.653 C 17.766 10.121 17.5 9.47 17.5 8.7 C 17.5 7.93 17.766 7.279 18.298 6.748 C 18.829 6.216 19.48 5.95 20.25 5.95 C 21.02 5.95 21.671 6.216 22.203 6.748 C 22.734 7.279 23 7.93 23 8.7 C 23 9.47 22.734 10.121 22.203 10.653 C 21.671 11.184 21.02 11.45 20.25 11.45 Z M 6.115 22.45 C 5.29 22.45 4.598 22.134 4.039 21.501 C 3.48 20.869 3.2 20.122 3.2 19.26 C 3.2 18.307 3.525 17.473 4.176 16.758 C 4.827 16.043 5.473 15.337 6.115 14.64 C 6.647 14.072 7.105 13.453 7.49 12.784 C 7.875 12.115 8.333 11.487 8.865 10.9 C 9.268 10.423 9.736 10.029 10.268 9.718 C 10.799 9.406 11.377 9.25 12 9.25 C 12.623 9.25 13.201 9.397 13.733 9.69 C 14.264 9.983 14.732 10.368 15.135 10.845 C 15.648 11.432 16.102 12.064 16.496 12.743 C 16.89 13.421 17.353 14.053 17.885 14.64 C 18.527 15.337 19.173 16.043 19.824 16.758 C 20.475 17.473 20.8 18.307 20.8 19.26 C 20.8 20.122 20.52 20.869 19.961 21.501 C 19.402 22.134 18.71 22.45 17.885 22.45 C 16.895 22.45 15.914 22.368 14.943 22.203 C 13.971 22.038 12.99 21.955 12 21.955 C 11.01 21.955 10.029 22.038 9.058 22.203 C 8.086 22.368 7.105 22.45 6.115 22.45 Z"></path>
    </symbol>

    <symbol id="plant" viewBox="0 0 24 24">
        <path d="M 8.205 23 C 7.692 23 7.242 22.844 6.857 22.533 C 6.472 22.221 6.216 21.818 6.087 21.323 L 4.85 16.4 L 19.15 16.4 L 17.912 21.323 C 17.784 21.818 17.527 22.221 17.142 22.533 C 16.757 22.844 16.308 23 15.795 23 L 8.205 23 Z M 12 7.6 C 12 5.767 12.642 4.208 13.925 2.925 C 15.208 1.642 16.767 1 18.6 1 C 18.6 2.65 18.077 4.08 17.032 5.29 C 15.987 6.5 14.677 7.233 13.1 7.49 L 13.1 9.8 L 21.9 9.8 L 21.9 13.1 C 21.9 13.705 21.685 14.223 21.254 14.654 C 20.823 15.085 20.305 15.3 19.7 15.3 L 4.3 15.3 C 3.695 15.3 3.177 15.085 2.746 14.654 C 2.315 14.223 2.1 13.705 2.1 13.1 L 2.1 9.8 L 10.9 9.8 L 10.9 7.49 C 9.323 7.233 8.012 6.5 6.967 5.29 C 5.922 4.08 5.4 2.65 5.4 1 C 7.233 1 8.792 1.642 10.075 2.925 C 11.358 4.208 12 5.767 12 7.6 Z"></path>
    </symbol>

    <symbol id="rocket-launch" viewBox="0 0 24 24">
        <path d="M 3.278 9.291 L 7.528 5.042 C 7.764 4.807 8.041 4.637 8.362 4.535 C 8.682 4.434 9.01 4.418 9.349 4.486 L 10.664 4.764 C 9.751 5.843 9.035 6.821 8.512 7.697 C 7.99 8.573 7.486 9.635 6.995 10.885 L 3.278 9.291 Z M 8.463 11.591 C 8.85 10.378 9.377 9.231 10.044 8.151 C 10.709 7.072 11.513 6.062 12.458 5.117 C 13.943 3.633 15.636 2.526 17.542 1.791 C 19.447 1.058 21.226 0.834 22.878 1.122 C 23.165 2.773 22.946 4.551 22.221 6.458 C 21.495 8.364 20.391 10.057 18.907 11.542 C 17.98 12.469 16.968 13.273 15.872 13.956 C 14.776 14.639 13.622 15.174 12.408 15.563 L 8.463 11.591 Z M 15.443 8.557 C 15.83 8.946 16.307 9.139 16.871 9.139 C 17.436 9.139 17.912 8.946 18.301 8.557 C 18.688 8.17 18.883 7.692 18.883 7.13 C 18.883 6.564 18.688 6.089 18.301 5.699 C 17.912 5.311 17.436 5.117 16.871 5.117 C 16.307 5.117 15.83 5.311 15.443 5.699 C 15.054 6.089 14.861 6.564 14.861 7.13 C 14.861 7.692 15.054 8.17 15.443 8.557 Z M 14.734 20.722 L 13.115 17.005 C 14.365 16.514 15.43 16.009 16.314 15.487 C 17.201 14.965 18.183 14.248 19.262 13.336 L 19.513 14.651 C 19.582 14.989 19.565 15.323 19.465 15.651 C 19.363 15.98 19.193 16.263 18.958 16.498 L 14.734 20.722 Z M 4.896 14.829 C 5.488 14.239 6.204 13.94 7.048 13.931 C 7.889 13.923 8.607 14.212 9.195 14.805 C 9.787 15.393 10.082 16.111 10.082 16.953 C 10.082 17.796 9.787 18.513 9.195 19.104 C 8.774 19.525 8.07 19.887 7.085 20.191 C 6.098 20.493 4.736 20.765 3 21 C 3.235 19.264 3.507 17.906 3.81 16.928 C 4.111 15.95 4.474 15.251 4.896 14.829 Z"></path>
    </symbol>

    <symbol id="ant" viewBox="0 0 24 24">
        <path d="M 11.941 7.923 C 12.115 7.315 12.541 7.027 12.469 6.866 C 12.129 6.866 11.494 6.933 11.588 5.91 C 11.668 5.011 11.797 4.809 12.095 4.164 C 12.205 3.926 10.189 3.316 9.289 2.606 C 9.238 2.566 8.912 1.952 8.882 1.9 C 8.583 1.377 8.563 0.972 8.276 0.492 C 8.141 0.268 7.944 0.192 8.088 0.025 C 8.301 -0.224 8.878 1.412 9.356 2.471 C 10.329 2.965 12.226 3.97 12.226 3.97 C 12.226 3.97 12.753 3.696 13.419 3.927 C 13.67 3.266 15.127 2.305 15.709 1.498 C 16.117 0.933 15.962 -0.024 16.173 0.058 C 16.326 0.119 15.993 1.526 15.839 1.68 C 15.768 1.751 15.439 2.196 14.87 2.616 C 13.968 3.283 13.557 4.054 13.557 4.054 C 13.557 4.054 13.944 4.561 14.136 5.218 C 14.375 6.032 14.414 7.016 13.178 6.804 C 13.248 7.641 14.293 6.947 13.831 9.597 C 14.616 8.329 14.058 8.532 14.706 6.988 C 15.109 6.033 15.698 4.833 16.258 3.68 C 16.598 2.974 16.977 1.887 17.091 1.953 C 17.339 2.092 16.494 3.604 16.494 3.604 C 16.494 3.604 15.765 5.062 15.678 5.454 C 15.59 5.855 14.605 7.187 14.647 7.679 C 14.677 8.035 14.593 8.611 14.468 9 C 14.169 9.922 13.573 10.329 13.573 10.483 C 13.573 10.73 13.813 10.742 13.872 10.905 C 13.951 11.124 14.073 11.301 14.279 11.186 C 14.638 10.99 15.193 10.631 15.681 10.522 C 15.989 10.452 15.91 10.716 16.15 10.859 C 16.922 11.323 17.758 12.226 18.733 12.91 C 19.382 13.366 19.986 13.682 20.352 13.682 C 20.939 13.682 20.575 13.943 20.263 13.861 C 20.007 13.796 18.306 12.819 16.992 11.883 C 16.316 11.4 15.963 10.893 15.877 10.877 C 15.253 10.765 14.956 11.605 14.448 11.605 C 13.94 11.605 13.59 11.478 13.453 11.615 C 13.318 11.749 13.454 12.237 13.67 12.453 C 13.886 12.669 13.765 12.822 13.765 13.038 C 13.765 13.254 15.062 13.412 15.758 15.402 C 16.087 16.345 16.581 18.011 17.034 19.724 C 17.174 20.258 17.317 21.069 17.455 21.567 C 17.81 22.836 17.903 23.074 18.225 23.512 C 18.457 23.832 18.529 23.895 18.485 23.969 C 18.41 24.095 18.155 23.807 18.034 23.595 C 17.87 23.308 17.675 22.84 17.351 21.825 C 17.123 21.111 16.988 20.329 16.87 19.946 C 16.646 19.22 16.022 16.526 15.074 14.824 C 14.759 14.257 14.246 13.918 13.97 13.692 C 13.324 13.166 13.141 12.893 13.086 13.008 C 12.918 13.366 13.646 13.514 13.851 14.061 C 13.966 14.366 13.957 14.722 13.97 15.103 C 14.005 16.085 13.543 18.036 12.313 18.223 C 11.337 18.357 10.208 14.581 11.675 13.534 C 11.81 13.436 12.045 13.418 12.117 13.291 C 12.242 13.066 12.07 12.819 11.913 12.977 C 11.809 13.08 11.637 13.241 11.282 13.437 C 10.797 13.704 10.513 13.74 10.353 13.901 C 10.075 14.178 9.812 14.306 9.587 14.855 C 9.419 15.265 8.745 17.082 8.533 17.488 C 8.313 17.916 7.511 20.255 7.376 20.601 C 7.317 20.752 7.105 21.3 6.832 21.765 C 6.532 22.276 6.346 22.683 6.272 22.785 C 6.068 23.068 5.909 22.888 6.248 22.539 C 6.371 22.41 6.839 21.49 7.24 20.493 C 7.699 19.36 8.074 18.189 8.17 17.642 C 8.294 16.931 8.941 15.793 9.408 14.706 C 9.955 13.437 10.603 13.116 10.909 13.116 C 11.496 13.116 11.714 12.873 11.714 12.441 C 11.714 11.917 12.078 11.763 12.004 11.425 C 11.965 11.245 11.265 11.402 10.863 11.402 C 10.462 11.402 9.01 10.99 8.608 11.113 C 8.208 11.237 6.635 11.685 6.235 11.685 C 5.832 11.685 3.568 11.924 3.417 11.771 C 3.264 11.618 3.355 11.598 3.477 11.598 C 3.54 11.598 4.98 11.693 6.166 11.458 C 7.308 11.231 8.042 10.786 8.859 10.786 C 10.537 10.786 10.899 11.108 11.605 11.009 C 11.747 10.989 11.642 10.789 11.714 10.71 C 12.03 10.367 12.174 10.332 11.973 9.984 C 11.797 9.682 11.22 9.562 11.247 8.395 C 11.255 8.041 11.374 7.393 11.072 7.058 C 10.465 6.388 9.87 4.762 9.447 4 C 9.028 3.243 8.7 2.99 8.853 2.838 C 9.052 2.637 9.202 3.328 9.567 3.95 C 10.392 5.352 11.533 7.04 11.604 7.39 C 11.675 7.741 11.572 9.706 12.159 9.706 C 11.866 9.135 11.786 8.465 11.941 7.923 Z" id="path6" style=""></path>
    </symbol>
</svg>