<svg preserveAspectRatio="xMidYMid meet" xmlns="http://www.w3.org/2000/svg">
    <symbol id="clock" viewBox="0 0 24 24">
        <path d="M0 0h24v24H0V0z" fill="none"/><path d="M11.99 2C6.47 2 2 6.48 2 12s4.47 10 9.99 10C17.52 22 22 17.52 22 12S17.52 2 11.99 2zM12 20c-4.42 0-8-3.58-8-8s3.58-8 8-8 8 3.58 8 8-3.58 8-8 8zm.5-13H11v6l5.25 3.15.75-1.23-4.5-2.67z"/>
    </symbol>

    <symbol id="reply" viewBox="0 0 24 24">
        <path d="M0 0h24v24H0z" fill="none"/><path d="M10 9V5l-7 7 7 7v-4.1c5 0 8.5 1.6 11 5.1-1-5-4-10-11-11z"/>
    </symbol>

    <symbol id="boost" viewBox="0 0 24 24">
        <path d="M6,5.75L10.25,10H7V16H13.5L15.5,18H7A2,2 0 0,1 5,16V10H1.75L6,5.75M18,18.25L13.75,14H17V8H10.5L8.5,6H17A2,2 0 0,1 19,8V14H22.25L18,18.25Z" />
    </symbol>

    <symbol id="star" viewBox="0 0 24 24">
        <path d="M0 0h24v24H0z" fill="none"/><path d="M12 17.27L18.18 21l-1.64-7.03L22 9.24l-7.19-.61L12 2 9.19 8.63 2 9.24l5.46 4.73L5.82 21z"/>
    </symbol>

    <symbol id="start-outlined" viewBox="0 0 24 24">
        <path d="M0 0h24v24H0V0z" fill="none"/><path d="M12 7.13l.97 2.29.47 1.11 1.2.1 2.47.21-1.88 1.63-.91.79.27 1.18.56 2.41-2.12-1.28-1.03-.64-1.03.62-2.12 1.28.56-2.41.27-1.18-.91-.79-1.88-1.63 2.47-.21 1.2-.1.47-1.11.97-2.27M12 2L9.19 8.63 2 9.24l5.46 4.73L5.82 21 12 17.27 18.18 21l-1.64-7.03L22 9.24l-7.19-.61L12 2z"/>
    </symbol>

    <symbol id="share" viewBox="0 0 24 24">
        <path d="M0 0h24v24H0V0z" fill="none"/><path d="M18 16.08c-.76 0-1.44.3-1.96.77L8.91 12.7c.05-.23.09-.46.09-.7s-.04-.47-.09-.7l7.05-4.11c.54.5 1.25.81 2.04.81 1.66 0 3-1.34 3-3s-1.34-3-3-3-3 1.34-3 3c0 .24.04.47.09.7L8.04 9.81C7.5 9.31 6.79 9 6 9c-1.66 0-3 1.34-3 3s1.34 3 3 3c.79 0 1.5-.31 2.04-.81l7.12 4.16c-.05.21-.08.43-.08.65 0 1.61 1.31 2.92 2.92 2.92s2.92-1.31 2.92-2.92c0-1.61-1.31-2.92-2.92-2.92zM18 4c.55 0 1 .45 1 1s-.45 1-1 1-1-.45-1-1 .45-1 1-1zM6 13c-.55 0-1-.45-1-1s.45-1 1-1 1 .45 1 1-.45 1-1 1zm12 7.02c-.55 0-1-.45-1-1s.45-1 1-1 1 .45 1 1-.45 1-1 1z"/>
    </symbol>
</svg>